<svg xmlns="http://www.w3.org/2000/svg" width="579" height="373" viewBox="0 0 579 373" version="1.1"><path d="M 339.273 97.800 C 324.848 104.785, 313.036 110.766, 313.023 111.092 C 313.010 111.418, 316.171 112.928, 320.046 114.448 L 327.092 117.213 346.796 109.260 L 366.500 101.306 366.790 93.153 C 366.950 88.669, 366.725 85.022, 366.290 85.050 C 365.856 85.077, 353.698 90.815, 339.273 97.800 M 278.046 118.438 C 271.747 120.794, 266.431 123.208, 266.233 123.802 C 266.035 124.396, 267.139 125.524, 268.686 126.307 C 273.981 128.989, 292.700 135, 295.602 134.951 C 299.230 134.890, 323.235 125.888, 323.710 124.411 C 324.284 122.621, 299.611 113.988, 294.178 114.077 C 291.277 114.125, 285.149 115.782, 278.046 118.438 M 275.250 122.247 C 273.462 122.820, 272 123.632, 272 124.051 C 272 124.469, 274.057 125.513, 276.571 126.369 C 280.716 127.782, 281.509 127.780, 285.071 126.355 C 289.823 124.453, 289.990 123.541, 285.851 122.098 C 282.125 120.799, 279.654 120.834, 275.250 122.247 M 244 148.461 C 244 163.892, 244.312 169.014, 245.300 169.834 C 246.015 170.427, 250.742 172.493, 255.804 174.425 L 265.008 177.937 304.504 159.253 L 344 140.568 344 134.410 L 344 128.252 322.250 136.772 C 309.087 141.928, 298.522 145.472, 295.489 145.750 C 290.220 146.232, 283.284 143.982, 255.250 132.695 L 244 128.166 244 148.461 M 247 150.032 C 247 160.277, 247.395 168, 247.918 168 C 248.423 168, 249.559 168.277, 250.442 168.616 C 251.885 169.170, 252.019 167.434, 251.774 151.480 C 251.506 134.100, 251.453 133.710, 249.250 132.896 L 247 132.064 247 150.032 M 349 142.322 C 339.925 146.827, 313.150 160.059, 289.500 171.727 C 247.007 192.691, 242.035 195.368, 243.285 196.618 C 244.692 198.025, 255.846 193.956, 310.231 172.198 L 366.963 149.500 366.981 141.750 C 366.992 137.488, 366.663 134.029, 366.250 134.065 C 365.837 134.101, 358.075 137.816, 349 142.322 M 224.829 152.520 C 217.860 156.049, 211.827 159.471, 211.423 160.124 C 210.181 162.135, 216.809 160.525, 228.354 156.011 C 238.506 152.042, 239 151.713, 239 148.924 C 239 147.316, 238.662 146.023, 238.250 146.052 C 237.838 146.081, 231.798 148.991, 224.829 152.520 M 314.230 175.817 L 286.960 186.500 292.962 186.797 C 298.423 187.068, 300.881 186.359, 320.232 178.932 C 331.929 174.442, 342.063 170.316, 342.750 169.762 C 343.438 169.208, 344 167.910, 344 166.878 C 344 165.845, 343.438 165.030, 342.750 165.067 C 342.063 165.103, 329.229 169.941, 314.230 175.817 M 95.196 223.298 C 92.267 226.320, 92 227.138, 92 233.101 C 92 239.148, 92.233 239.833, 95.298 242.804 C 98.589 245.994, 98.615 246, 109.298 246 L 120 246 120 250 L 120 254 111.622 254 C 105.396 254, 102.925 253.615, 102 252.500 C 101.240 251.585, 99.049 251, 96.378 251 C 92.248 251, 92 251.159, 92 253.804 C 92 255.663, 93.111 257.685, 95.298 259.804 L 98.595 263 111.601 263 L 124.608 263 127.804 259.702 C 130.733 256.680, 131 255.862, 131 249.899 C 131 243.852, 130.767 243.167, 127.702 240.196 C 124.411 237.006, 124.385 237, 113.702 237 L 103 237 103 233 L 103 229 111.345 229 C 118.420 229, 119.965 229.304, 121.500 231 C 122.712 232.339, 124.580 233, 127.155 233 C 130.839 233, 131 232.862, 131 229.696 C 131 227.272, 130.122 225.542, 127.702 223.196 L 124.405 220 111.399 220 L 98.392 220 95.196 223.298 M 139 238.695 L 139 257.391 141.687 260.195 C 144.364 262.989, 144.425 263, 157.491 263 L 170.608 263 173.804 259.702 L 177 256.405 177 238.202 L 177 220 171.500 220 L 166 220 166 237 L 166 254 158 254 L 150 254 150 237 L 150 220 144.500 220 L 139 220 139 238.695 M 187.653 223.548 C 184.216 226.886, 184 227.467, 184 233.352 C 184 239.115, 184.260 239.859, 187.298 242.804 C 190.589 245.994, 190.615 246, 201.298 246 L 212 246 212 250 L 212 254 203.622 254 C 197.396 254, 194.925 253.615, 194 252.500 C 193.240 251.585, 191.049 251, 188.378 251 C 184.248 251, 184 251.159, 184 253.804 C 184 255.663, 185.111 257.685, 187.298 259.804 L 190.595 263 203.548 262.984 C 216.372 262.968, 216.532 262.940, 219.750 260.102 C 222.828 257.389, 223 256.870, 223 250.314 C 223 243.797, 222.807 243.205, 219.702 240.196 C 216.411 237.006, 216.385 237, 205.702 237 L 195 237 195 233 L 195 229 203.345 229 C 210.420 229, 211.965 229.304, 213.500 231 C 214.712 232.339, 216.580 233, 219.155 233 C 222.839 233, 223 232.862, 223 229.696 C 223 227.272, 222.122 225.542, 219.702 223.196 L 216.405 220 203.856 220 L 191.307 220 187.653 223.548 M 231 241.500 L 231 263 236.500 263 L 242 263 242 254.500 L 242 246 250 246 L 258 246 258 254.500 L 258 263 263.500 263 L 269 263 269 241.500 L 269 220 263.500 220 L 258 220 258 228.500 L 258 237 250 237 L 242 237 242 228.500 L 242 220 236.500 220 L 231 220 231 241.500 M 275 223.883 C 275 226.926, 275.433 227.880, 277 228.290 C 278.872 228.779, 279 229.654, 279 241.906 C 279 254.333, 278.898 255, 277 255 C 275.333 255, 275 255.667, 275 259 L 275 263 284 263 L 293 263 293 259 C 293 256.111, 292.583 255, 291.500 255 C 290.241 255, 290 252.833, 290 241.500 C 290 230.167, 290.241 228, 291.500 228 C 292.583 228, 293 226.889, 293 224 L 293 220 284 220 L 275 220 275 223.883 M 317 224.500 L 317 229 323.500 229 L 330 229 330 246 L 330 263 335.500 263 L 341 263 341 246 L 341 229 347.500 229 L 354 229 354 224.500 L 354 220 335.500 220 L 317 220 317 224.500 M 358 238.304 L 358 256.608 361.298 259.804 L 364.595 263 379.798 263 L 395 263 395 258.500 L 395 254 382 254 L 369 254 369 250 L 369 246 380 246 L 391 246 391 241.500 L 391 237 380 237 L 369 237 369 233 L 369 229 382 229 L 395 229 395 224.500 L 395 220 376.500 220 L 358 220 358 238.304 M 406.196 223.298 L 403 226.595 403 241.993 C 403 257.340, 403.009 257.400, 405.687 260.195 C 408.353 262.978, 408.472 263, 421 263 C 433.528 263, 433.647 262.978, 436.313 260.195 C 438.083 258.347, 439 256.300, 439 254.195 C 439 251.161, 438.808 251, 435.191 251 C 433.096 251, 430.509 251.661, 429.441 252.468 C 428.192 253.413, 425.093 253.948, 420.750 253.968 L 414 254 414 241.500 L 414 229 420.845 229 C 426.420 229, 428.026 229.371, 429.500 231 C 430.712 232.339, 432.580 233, 435.155 233 C 438.839 233, 439 232.862, 439 229.696 C 439 227.272, 438.122 225.542, 435.702 223.196 L 432.405 220 420.899 220 L 409.392 220 406.196 223.298 M 447 241.500 L 447 263 452.500 263 L 458 263 458 254.500 L 458 246 466 246 L 474 246 474 254.500 L 474 263 479.500 263 L 485 263 485 241.500 L 485 220 479.500 220 L 474 220 474 228.500 L 474 237 466 237 L 458 237 458 228.500 L 458 220 452.500 220 L 447 220 447 241.500 M 132.314 282.624 C 131.938 283.605, 132.354 284.619, 133.367 285.185 C 134.288 285.701, 134.777 286.553, 134.452 287.078 C 134.127 287.603, 133.330 287.734, 132.681 287.370 C 131.782 286.865, 131.777 287.007, 132.663 287.966 C 133.987 289.400, 136 288.544, 136 286.548 C 136 285.814, 135.325 284.955, 134.500 284.638 C 133.675 284.322, 133 283.613, 133 283.063 C 133 282.513, 133.749 282.350, 134.664 282.701 C 135.783 283.131, 136.091 282.957, 135.605 282.170 C 134.579 280.510, 133.044 280.721, 132.314 282.624 M 137.015 283.059 C 136.994 286.578, 139.125 289.273, 141.276 288.447 C 142.512 287.973, 142.961 286.754, 142.864 284.143 C 142.766 281.514, 142.613 281.196, 142.315 283 C 141.519 287.817, 141.130 288.353, 139.443 286.952 C 138.599 286.252, 138.113 285.148, 138.362 284.499 C 138.611 283.850, 138.413 282.684, 137.923 281.909 C 137.264 280.869, 137.027 281.170, 137.015 283.059 M 145.343 282.548 C 145 283.442, 145.542 284.696, 146.625 285.516 C 148.450 286.899, 148.449 286.937, 146.550 286.968 C 145.118 286.992, 144.896 287.296, 145.713 288.113 C 146.325 288.725, 147.315 288.923, 147.913 288.554 C 149.510 287.567, 149.237 285.305, 147.437 284.614 C 146.577 284.284, 146.158 283.554, 146.506 282.991 C 146.854 282.428, 147.627 282.269, 148.224 282.638 C 148.871 283.039, 149.021 282.844, 148.595 282.155 C 147.593 280.532, 146.045 280.719, 145.343 282.548 M 151.252 285 C 151.263 287.475, 151.467 288.488, 151.706 287.250 C 151.944 286.012, 152.572 285, 153.102 285 C 153.631 285, 154.471 286.012, 154.969 287.250 C 155.701 289.073, 155.863 288.645, 155.821 285 C 155.792 282.525, 155.562 281.288, 155.311 282.250 C 155.059 283.212, 154.244 284, 153.500 284 C 152.756 284, 151.941 283.212, 151.689 282.250 C 151.438 281.288, 151.241 282.525, 151.252 285 M 157.272 285 C 157.272 287.475, 157.467 288.488, 157.706 287.250 C 157.944 286.012, 157.944 283.988, 157.706 282.750 C 157.467 281.512, 157.272 282.525, 157.272 285 M 163.789 282.250 C 164.358 282.938, 165.020 284.850, 165.262 286.500 C 165.668 289.280, 165.711 289.231, 165.850 285.833 C 165.933 283.817, 166.563 281.940, 167.250 281.662 C 167.938 281.385, 167.207 281.122, 165.628 281.079 C 163.440 281.019, 163.002 281.298, 163.789 282.250 M 169 285 C 169 288.450, 169.301 289, 171.191 289 C 173.282 289, 173.297 288.938, 171.526 287.642 C 169.721 286.323, 169.722 286.254, 171.584 285.173 C 173.305 284.174, 173.322 284.058, 171.750 284.030 C 170.787 284.014, 170 283.583, 170 283.073 C 170 282.564, 170.787 281.941, 171.750 281.689 C 173.067 281.345, 172.943 281.203, 171.250 281.116 C 169.272 281.014, 169 281.484, 169 285 M 176.163 281.878 C 174.395 282.999, 175.050 287.014, 177.222 288.375 C 178.499 289.176, 179.276 289.116, 180.222 288.144 C 181.262 287.077, 181.221 286.870, 180 287.035 C 176.963 287.444, 176 286.954, 176 285 C 176 283.074, 176.976 282.554, 179.850 282.948 C 180.593 283.050, 180.904 282.654, 180.541 282.067 C 179.753 280.791, 177.997 280.716, 176.163 281.878 M 182.179 285 C 182.137 288.645, 182.299 289.073, 183.031 287.250 C 184.152 284.461, 186 284.306, 186 287 C 186 288.100, 186.450 289, 187 289 C 187.550 289, 188 287.200, 188 285 C 188 282.800, 187.550 281, 187 281 C 186.450 281, 186 281.675, 186 282.500 C 186 284.592, 183.247 284.384, 182.689 282.250 C 182.438 281.288, 182.208 282.525, 182.179 285 M 195.343 282.548 C 195 283.442, 195.542 284.696, 196.625 285.516 C 198.450 286.899, 198.449 286.937, 196.550 286.968 C 195.118 286.992, 194.896 287.296, 195.713 288.113 C 196.325 288.725, 197.315 288.923, 197.913 288.554 C 199.510 287.567, 199.237 285.305, 197.437 284.614 C 196.577 284.284, 196.158 283.554, 196.506 282.991 C 196.854 282.428, 197.627 282.269, 198.224 282.638 C 198.871 283.039, 199.021 282.844, 198.595 282.155 C 197.593 280.532, 196.045 280.719, 195.343 282.548 M 201.736 284.989 C 200.870 287.195, 200.544 289, 201.013 289 C 201.482 289, 202.154 288.091, 202.506 286.980 C 203.136 284.997, 203.182 285.001, 205.068 287.230 C 206.981 289.491, 206.983 289.483, 205.389 285.500 C 204.510 283.300, 203.682 281.383, 203.551 281.239 C 203.419 281.096, 202.603 282.783, 201.736 284.989 M 208 285 C 208 288.354, 208.328 289, 210.031 289 C 212.635 289, 213.570 286.547, 212.153 283.436 C 210.340 279.458, 208 280.339, 208 285 M 215.039 282.928 C 213.039 286.664, 216.336 289.961, 220.072 287.961 C 222.247 286.798, 222.600 284, 220.800 282.200 C 219 280.400, 216.202 280.753, 215.039 282.928 M 223.116 285.180 C 223.180 287.556, 223.444 288.679, 223.704 287.675 C 224.143 285.976, 224.302 285.963, 225.989 287.490 C 227.712 289.049, 227.795 288.941, 227.651 285.316 C 227.527 282.176, 227.101 281.443, 225.250 281.180 C 223.200 280.889, 223.010 281.245, 223.116 285.180 M 230 285 C 230 288.490, 230.287 288.996, 232.250 288.970 C 234.304 288.942, 234.343 288.848, 232.695 287.889 C 231.268 287.059, 231.137 286.540, 232.067 285.419 C 232.911 284.403, 232.926 284, 232.122 284 C 230.333 284, 230.824 282.193, 232.750 281.689 C 234.067 281.345, 233.943 281.203, 232.250 281.116 C 230.272 281.014, 230 281.484, 230 285 M 236 282.893 C 236 283.934, 236.704 285.056, 237.563 285.386 C 238.423 285.716, 238.842 286.446, 238.494 287.009 C 238.146 287.572, 237.373 287.731, 236.776 287.362 C 236.144 286.971, 235.977 287.154, 236.378 287.802 C 237.245 289.206, 240 288.216, 240 286.500 C 240 285.793, 239.325 284.955, 238.500 284.638 C 237.675 284.322, 237 283.613, 237 283.063 C 237 282.513, 237.749 282.350, 238.664 282.701 C 239.783 283.131, 240.091 282.957, 239.605 282.170 C 238.460 280.317, 236 280.810, 236 282.893 M 244.750 281.662 C 245.438 281.940, 246.067 283.817, 246.150 285.833 C 246.289 289.231, 246.332 289.280, 246.738 286.500 C 246.980 284.850, 247.642 282.938, 248.211 282.250 C 248.998 281.298, 248.560 281.019, 246.372 281.079 C 244.793 281.122, 244.063 281.385, 244.750 281.662 M 251.070 285.250 C 251.120 288.249, 251.363 288.933, 251.895 287.573 C 252.571 285.849, 252.718 285.823, 253.294 287.323 C 253.648 288.245, 254.456 289, 255.091 289 C 255.935 289, 255.950 288.645, 255.146 287.676 C 254.347 286.714, 254.350 286.050, 255.157 285.243 C 256.748 283.652, 255.420 281, 253.031 281 C 251.297 281, 251.010 281.622, 251.070 285.250 M 258.682 285.239 C 257.124 289.311, 257.129 289.408, 258.800 287.418 L 260.548 285.336 262.256 287.418 C 263.875 289.392, 263.881 289.292, 262.377 285.500 C 261.504 283.300, 260.682 281.383, 260.551 281.239 C 260.419 281.096, 259.578 282.896, 258.682 285.239 M 265 285 C 265 287.800, 265.429 289, 266.429 289 C 267.776 289, 271 286.435, 271 285.363 C 271 283.583, 268.611 281, 266.965 281 C 265.339 281, 265 281.691, 265 285 M 272.272 285 C 272.272 287.475, 272.467 288.488, 272.706 287.250 C 272.944 286.012, 272.944 283.988, 272.706 282.750 C 272.467 281.512, 272.272 282.525, 272.272 285 M 275.200 282.200 C 273.570 283.830, 273.692 285.550, 275.571 287.429 C 277.315 289.172, 280 289.538, 280 288.031 C 280 287.499, 279.397 287.294, 278.660 287.577 C 277.923 287.860, 276.743 287.396, 276.038 286.546 C 274.994 285.288, 274.994 284.712, 276.038 283.454 C 276.743 282.604, 277.923 282.140, 278.660 282.423 C 279.397 282.706, 280 282.501, 280 281.969 C 280 280.601, 276.637 280.763, 275.200 282.200 M 282.272 285 C 282.272 287.475, 282.467 288.488, 282.706 287.250 C 282.944 286.012, 282.944 283.988, 282.706 282.750 C 282.467 281.512, 282.272 282.525, 282.272 285 M 285.040 282.452 C 283.589 284.200, 284.483 287.588, 286.611 288.404 C 288.757 289.228, 292 287.279, 292 285.165 C 292 281.403, 287.399 279.610, 285.040 282.452 M 293.136 285.076 C 293.211 287.509, 293.467 288.488, 293.706 287.250 C 294.223 284.564, 294.759 284.472, 297.171 286.655 C 298.915 288.233, 298.994 288.128, 298.864 284.405 C 298.776 281.901, 298.568 281.342, 298.282 282.847 L 297.835 285.194 295.418 282.923 L 293 280.651 293.136 285.076 M 308 285 C 308 287.200, 308.450 289, 309 289 C 309.550 289, 310 287.200, 310 285 C 310 282.800, 309.550 281, 309 281 C 308.450 281, 308 282.800, 308 285 M 311.343 282.548 C 311 283.442, 311.542 284.696, 312.625 285.516 C 314.450 286.899, 314.449 286.937, 312.550 286.968 C 311.118 286.992, 310.896 287.296, 311.713 288.113 C 312.325 288.725, 313.315 288.923, 313.913 288.554 C 315.510 287.567, 315.237 285.305, 313.437 284.614 C 312.577 284.284, 312.158 283.554, 312.506 282.991 C 312.854 282.428, 313.627 282.269, 314.224 282.638 C 314.871 283.039, 315.021 282.844, 314.595 282.155 C 313.593 280.532, 312.045 280.719, 311.343 282.548 M 323.789 282.250 C 324.358 282.938, 325.020 284.850, 325.262 286.500 C 325.668 289.280, 325.711 289.231, 325.850 285.833 C 325.933 283.817, 326.563 281.940, 327.250 281.662 C 327.938 281.385, 327.207 281.122, 325.628 281.079 C 323.440 281.019, 323.002 281.298, 323.789 282.250 M 329 285 C 329 288.450, 329.301 289, 331.191 289 C 333.282 289, 333.297 288.938, 331.526 287.642 C 329.721 286.323, 329.722 286.254, 331.584 285.173 C 333.305 284.174, 333.322 284.058, 331.750 284.030 C 330.788 284.014, 330 283.583, 330 283.073 C 330 282.564, 330.788 281.941, 331.750 281.689 C 333.067 281.345, 332.943 281.203, 331.250 281.116 C 329.272 281.014, 329 281.484, 329 285 M 336.163 281.878 C 334.395 282.999, 335.050 287.014, 337.222 288.375 C 338.490 289.170, 339.277 289.123, 340.201 288.199 C 341.210 287.190, 340.968 286.998, 338.979 287.221 C 336.927 287.452, 336.500 287.069, 336.500 285 C 336.500 282.984, 336.947 282.548, 338.808 282.749 C 340.140 282.892, 340.855 282.575, 340.499 281.999 C 339.749 280.785, 337.965 280.736, 336.163 281.878 M 342.136 285.076 C 342.211 287.509, 342.467 288.488, 342.706 287.250 C 343.223 284.564, 343.759 284.472, 346.171 286.655 C 347.915 288.233, 347.994 288.128, 347.864 284.405 C 347.776 281.901, 347.568 281.342, 347.282 282.847 L 346.835 285.194 344.418 282.923 L 342 280.651 342.136 285.076 M 350.667 281.667 C 349.435 282.899, 349.985 286.743, 351.584 288.070 C 354.701 290.657, 358.608 285.642, 355.960 282.452 C 354.706 280.941, 351.820 280.513, 350.667 281.667 M 358.132 284.750 C 358.007 288.767, 358.151 288.996, 360.750 288.930 C 363.130 288.869, 363.231 288.755, 361.500 288.083 C 360.266 287.604, 359.263 286.003, 358.882 283.903 C 358.271 280.543, 358.262 280.554, 358.132 284.750 M 365.238 282.162 C 362.341 285.059, 365.481 290.448, 368.834 288.333 C 371.293 286.782, 371.041 281.577, 368.488 281.212 C 367.382 281.053, 365.919 281.481, 365.238 282.162 M 373.667 281.667 C 372.435 282.899, 372.985 286.743, 374.584 288.070 C 375.732 289.022, 376.626 289.095, 377.834 288.335 C 380.154 286.874, 380.563 284, 378.451 284 C 377.121 284, 377.002 284.298, 377.903 285.383 C 378.795 286.458, 378.673 286.911, 377.358 287.416 C 375.216 288.238, 373.697 286.768, 374.197 284.356 C 374.456 283.106, 375.322 282.581, 376.849 282.749 C 378.153 282.891, 378.854 282.573, 378.499 281.999 C 377.801 280.870, 374.678 280.655, 373.667 281.667 M 381 284.941 C 381 287.173, 381.358 289, 381.796 289 C 382.997 289, 383.205 282.245, 382.026 281.516 C 381.389 281.122, 381 282.420, 381 284.941 M 404.667 281.667 C 403.435 282.899, 403.985 286.743, 405.584 288.070 C 408.701 290.657, 412.608 285.642, 409.960 282.452 C 408.706 280.941, 405.820 280.513, 404.667 281.667 M 412 285 C 412 288.667, 412.245 289.103, 414.148 288.820 C 417.137 288.375, 418.808 285.507, 417.393 283.250 C 416.789 282.288, 415.329 281.356, 414.148 281.180 C 412.245 280.897, 412 281.333, 412 285 M 419 285 C 419 288.712, 419.198 288.995, 421.750 288.937 L 424.500 288.873 422 287.868 C 419.639 286.918, 419.601 286.788, 421.322 285.518 C 423.084 284.218, 423.084 284.160, 421.322 283.739 C 419.764 283.368, 419.862 283.147, 422 282.216 L 424.500 281.127 421.750 281.063 C 419.198 281.005, 419 281.288, 419 285 M 425.070 285.180 C 425.123 288.435, 425.343 289.007, 425.963 287.500 C 426.718 285.664, 426.844 285.644, 427.500 287.250 C 428.662 290.098, 429.500 289.260, 429.500 285.250 C 429.500 282.122, 429.126 281.447, 427.250 281.180 C 425.206 280.890, 425.006 281.256, 425.070 285.180 M 436 283.155 C 436 285.247, 435.941 285.257, 434 283.500 C 432.900 282.505, 431.959 281.872, 431.908 282.095 C 431.080 285.757, 431.097 289, 431.944 289 C 432.525 289, 433 288.030, 433 286.845 C 433 284.821, 433.111 284.790, 434.829 286.345 C 437.469 288.735, 438 288.426, 438 284.500 C 438 282.575, 437.550 281, 437 281 C 436.450 281, 436 281.970, 436 283.155 M 216.362 283.500 C 215.578 285.543, 216.732 288.256, 218.179 287.774 C 218.827 287.558, 219.839 286.607, 220.429 285.662 C 221.242 284.357, 221.139 283.713, 220 282.987 C 217.897 281.646, 217.026 281.769, 216.362 283.500 M 224.667 282.667 C 223.516 283.817, 223.938 285, 225.500 285 C 226.325 285, 227 284.325, 227 283.500 C 227 281.938, 225.817 281.516, 224.667 282.667 M 252 283.500 C 252 284.417, 252.484 285.005, 253.075 284.808 C 253.666 284.611, 254.150 284.022, 254.150 283.500 C 254.150 282.978, 253.666 282.389, 253.075 282.192 C 252.484 281.995, 252 282.583, 252 283.500 M 266 284.441 C 266 287.496, 267.389 288.441, 269.009 286.489 C 269.991 285.306, 269.989 284.691, 269 283.500 C 267.173 281.299, 266 281.667, 266 284.441 M 285.958 283.550 C 284.897 284.829, 284.954 285.383, 286.286 286.714 C 287.617 288.046, 288.171 288.103, 289.450 287.042 C 291.446 285.385, 291.431 283.379, 289.418 282.607 C 287.325 281.804, 287.432 281.774, 285.958 283.550 M 302.161 284.547 C 300.529 288.127, 300.667 289.522, 302.500 288 C 303.697 287.007, 304.303 287.007, 305.500 288 C 306.325 288.685, 307 288.942, 307 288.573 C 307 287.736, 304.063 282, 303.635 282 C 303.462 282, 302.799 283.146, 302.161 284.547 M 351.667 282.667 C 350.692 283.641, 350.852 286.791, 351.910 287.444 C 353.456 288.400, 356 286.880, 356 285 C 356 284.018, 355.288 282.941, 354.418 282.607 C 352.460 281.855, 352.478 281.855, 351.667 282.667 M 365.701 282.632 C 364.408 283.925, 364.983 286.780, 366.667 287.426 C 368.775 288.235, 370.294 286.766, 369.832 284.368 C 369.465 282.461, 366.935 281.398, 365.701 282.632 M 385.623 284.762 C 383.605 288.664, 383.566 289.605, 385.489 288.009 C 386.308 287.329, 386.731 286.374, 386.430 285.887 C 386.129 285.399, 386.306 285, 386.824 285 C 387.343 285, 388.075 286.012, 388.451 287.250 C 388.833 288.509, 389.353 288.976, 389.631 288.310 C 389.903 287.655, 389.479 285.883, 388.687 284.371 L 387.246 281.623 385.623 284.762 M 395.070 285.527 C 395.121 288.410, 395.348 288.969, 395.898 287.566 C 396.441 286.178, 396.870 285.980, 397.417 286.865 C 397.977 287.771, 398.529 287.806, 399.505 286.995 C 400.516 286.157, 400.945 286.324, 401.300 287.697 C 401.558 288.689, 401.820 287.763, 401.884 285.639 L 402 281.778 400.165 284.044 L 398.331 286.310 396.665 283.932 L 395 281.555 395.070 285.527 M 405.667 282.667 C 403.542 284.791, 405.874 288.273, 408.750 287.269 C 410.534 286.647, 410.297 283.328, 408.418 282.607 C 406.460 281.855, 406.478 281.855, 405.667 282.667 M 414 285.154 C 414 287.788, 414.222 288.061, 415.500 287 C 416.325 286.315, 417 285.183, 417 284.485 C 417 283.786, 416.325 282.955, 415.500 282.638 C 414.366 282.203, 414 282.817, 414 285.154 M 426 283.500 C 426 284.417, 426.484 285.005, 427.075 284.808 C 427.666 284.611, 428.150 284.022, 428.150 283.500 C 428.150 282.978, 427.666 282.389, 427.075 282.192 C 426.484 281.995, 426 282.583, 426 283.500 M 440.619 284.771 C 438.602 288.670, 438.568 289.604, 440.500 288 C 441.697 287.007, 442.303 287.007, 443.500 288 C 445.460 289.627, 445.504 287.538, 443.583 284.070 L 442.237 281.641 440.619 284.771 M 209.192 286.075 C 209.389 286.666, 209.978 287.150, 210.500 287.150 C 211.022 287.150, 211.611 286.666, 211.808 286.075 C 212.005 285.484, 211.417 285, 210.500 285 C 209.583 285, 208.995 285.484, 209.192 286.075" stroke="none" fill="#f9f9f9" fill-rule="evenodd"/></svg>